<?xml version="1.0" encoding="utf-8"?>
<svg viewBox="0 0 500 500" xmlns="http://www.w3.org/2000/svg">
  <rect x="-1.727" y="-4.145" width="504.318" height="507.081" style="stroke: rgb(0, 0, 0); fill: rgb(255, 255, 255);"/>
  <path class="cls-1" d="M 449.525 184.946 C 449.108 182.3 448.581 179.656 447.94 177.089 C 447.676 175.804 447.296 174.524 446.958 173.314 C 446.958 173.013 446.958 172.634 446.693 172.369 L 446.429 171.613 L 445.9 170.028 L 443.823 163.833 L 441.408 157.719 C 440.653 155.679 439.744 153.676 438.801 151.677 C 437.857 149.674 437.027 147.672 435.969 145.748 C 432.076 137.891 427.527 130.375 422.375 123.28 C 412.353 109.319 400.3 96.931 386.613 86.535 C 376.191 78.576 364.965 71.732 353.117 66.107 C 328.543 52.741 301.241 45.156 273.291 43.942 C 265.043 43.569 256.783 43.701 248.556 44.317 C 240.592 44.913 232.667 45.907 224.802 47.303 C 216.683 48.434 209.131 50.321 201.315 52.212 C 185.757 56.456 170.662 62.251 156.265 69.506 C 152.676 71.431 149.014 73.284 145.504 75.36 L 140.405 78.644 C 138.67 79.701 136.97 80.873 135.23 82.005 C 133.497 83.136 131.795 84.272 130.136 85.519 L 125.151 89.293 L 122.694 91.143 L 120.279 93.145 L 115.481 96.956 C 102.777 107.971 91.643 120.679 82.402 134.723 C 73.219 148.625 65.834 163.637 60.425 179.392 L 58.498 185.248 L 57.557 188.154 L 57.102 189.587 L 56.725 191.024 L 53.703 202.921 C 53.703 202.921 53.703 202.921 53.703 202.921 C 52.911 206.921 52.155 210.964 51.436 215.004 C 51.023 217.042 50.871 219.12 50.606 221.159 L 49.888 227.313 C 48.362 243.745 48.805 260.303 51.209 276.632 C 52.371 284.698 54.035 292.682 56.198 300.536 C 58.323 308.299 60.839 315.949 63.75 323.457 C 69.518 338.182 76.713 352.311 85.234 365.637 L 88.368 370.546 L 92.068 375.415 C 94.45 378.738 96.714 382.099 99.355 385.16 L 103.134 389.842 L 105.1 392.184 C 105.739 392.94 106.458 393.653 107.176 394.409 C 109.968 397.319 112.689 400.301 115.559 403.135 L 124.432 411.327 C 127.53 413.895 130.701 416.351 133.835 418.879 C 140.27 423.685 146.974 428.11 153.923 432.133 C 167.725 439.992 182.473 446.055 197.804 450.187 L 203.544 451.619 L 206.414 452.337 L 209.32 452.866 C 213.095 453.507 216.874 454.263 220.953 454.754 L 232.544 455.927 C 236.322 455.927 240.323 456.153 244.176 456.265 C 251.891 456.238 259.593 455.736 267.249 454.754 C 269.174 454.489 271.024 454.378 272.948 453.998 L 278.54 453.019 L 281.334 452.528 L 284.125 451.92 L 289.643 450.637 C 291.493 450.261 293.417 449.696 295.076 449.204 L 300.515 447.693 L 305.841 445.954 C 307.617 445.388 309.389 444.823 311.127 444.142 C 314.641 442.821 318.114 441.536 321.511 440.028 C 323.213 439.31 324.91 438.629 326.57 437.837 L 331.595 435.494 C 333.255 434.739 334.879 433.835 336.505 433.005 L 341.374 430.436 C 344.507 428.586 347.72 426.658 350.817 424.884 C 357.047 421.108 362.973 416.954 368.713 412.648 C 380.099 404.005 390.678 394.35 400.321 383.801 C 405.534 378.061 410.554 372.132 415.2 366.013 C 415.859 365.057 415.226 363.746 414.068 363.656 C 413.67 363.622 413.276 363.754 412.971 364.014 C 407.488 369.266 401.74 374.232 395.751 378.891 C 384.971 387.315 373.458 394.762 361.35 401.131 C 338.021 413.75 312.161 420.971 285.674 422.278 L 280.881 422.278 C 280.087 422.278 279.295 422.278 278.464 422.278 L 276.045 422.278 L 271.251 422.278 C 269.666 422.278 268.08 422.014 266.493 421.902 C 260.241 421.403 254.025 420.531 247.876 419.296 L 238.849 417.144 L 230.054 414.46 C 227.105 413.482 224.273 412.272 221.403 411.252 L 219.289 410.422 L 217.174 409.476 L 213.021 407.626 C 202.107 402.464 191.793 396.136 182.246 388.747 C 172.698 381.641 163.985 373.487 156.265 364.426 C 154.378 362.16 152.49 359.782 150.79 357.518 C 150.376 356.949 149.885 356.383 149.468 355.78 L 148.221 353.967 L 145.768 350.19 C 144.066 347.848 142.634 345.283 141.123 342.637 L 138.893 338.863 L 136.705 334.783 C 130.998 324.239 126.174 313.235 122.281 301.894 C 114.58 280.115 111.733 256.919 113.932 233.923 L 114.501 229.69 C 114.728 228.295 114.766 226.861 115.104 225.499 L 116.728 217.154 L 118.88 208.887 L 119.147 207.867 L 119.486 206.847 L 120.163 204.807 L 121.526 200.728 C 125.304 190.142 130.377 180.058 136.629 170.708 C 142.776 161.455 150.131 153.062 158.495 145.748 C 167.077 138.288 176.462 131.805 186.474 126.414 C 196.855 120.924 207.762 116.484 219.024 113.16 C 224.728 111.537 230.356 110.026 236.359 108.891 C 242.136 107.696 247.968 106.787 253.843 106.174 C 259.418 105.566 265.035 105.302 270.648 105.38 L 272.61 105.38 L 274.385 105.38 L 276.085 105.38 L 277.594 105.38 L 278.238 105.38 L 278.766 105.38 L 279.295 105.38 L 279.634 105.38 L 280.314 105.38 L 285.939 106.512 C 290.093 107.383 292.285 107.759 295.193 108.4 C 298.099 109.044 300.857 109.724 303.65 110.517 C 309.27 112.102 314.801 113.982 320.228 116.141 C 330.813 120.321 340.822 125.826 350.025 132.53 C 358.813 138.825 366.55 146.473 372.945 155.187 C 376.173 159.467 379.027 164.016 381.477 168.781 C 382.157 169.953 382.649 171.237 383.252 172.558 C 383.859 173.88 384.424 175.012 384.879 176.333 L 386.424 180.111 L 387.749 183.885 L 388.124 184.867 C 388.228 185.165 388.322 185.47 388.388 185.776 C 388.388 186.268 388.727 186.759 388.879 187.246 C 389.029 187.737 389.408 189.248 389.599 190.232 C 390.001 192.248 390.243 194.293 390.314 196.347 C 390.466 200.371 389.904 204.384 388.653 208.206 C 385.444 214.058 378.004 209.3 375.815 207.715 L 375.171 207.261 C 370.425 203.486 365.947 199.385 361.767 194.988 L 357.989 190.872 L 353.76 186.759 C 350.891 184.038 347.947 181.47 344.888 178.979 C 338.812 174.025 332.373 169.529 325.628 165.535 C 318.895 161.601 311.863 158.202 304.594 155.376 C 297.373 152.541 289.921 150.345 282.313 148.807 C 274.65 147.234 266.839 146.458 259.016 146.504 C 251.225 146.578 243.469 147.552 235.905 149.41 C 221.191 153.111 207.471 160.011 195.728 169.614 C 184.523 178.741 174.679 189.424 166.497 201.336 C 160.464 209.948 155.011 218.953 150.187 228.295 C 149.633 229.285 150.353 230.506 151.49 230.491 C 151.508 230.491 151.526 230.491 151.546 230.487 C 151.966 230.499 152.368 230.316 152.64 229.995 C 155.134 227.502 157.549 224.934 160.192 222.444 C 165.138 217.534 170.237 212.852 175.297 208.544 C 180.388 204.242 185.76 200.278 191.385 196.69 C 196.7 193.22 202.293 190.205 208.111 187.663 C 209.511 187.098 210.907 186.416 212.343 185.925 L 216.535 184.455 C 216.535 184.455 216.535 184.455 216.535 184.455 L 220.688 184.376 C 222.085 184.001 223.522 183.737 224.917 183.435 C 230.285 182.259 235.775 181.737 241.269 181.887 C 251.718 182.351 261.949 185.027 271.289 189.74 C 276.079 192.097 280.665 194.851 284.997 197.975 C 289.274 201.079 293.328 204.484 297.116 208.17 C 300.824 211.809 304.23 215.737 307.311 219.912 C 308.901 221.989 310.372 224.103 311.771 226.293 C 312.486 227.39 313.13 228.484 313.807 229.616 L 314.789 231.28 L 315.244 232.11 L 315.619 232.676 L 316.074 233.357 C 320.712 240.925 326.239 247.907 332.538 254.164 L 333.821 255.408 L 335.258 256.654 C 336.199 257.484 337.182 258.24 338.166 259.033 C 340.377 260.723 342.68 262.272 345.077 263.679 C 350.455 267.084 356.192 269.895 362.181 272.06 L 364.823 272.931 C 365.731 273.233 366.561 273.534 367.581 273.798 L 370.527 274.554 L 372 274.892 L 373.623 275.232 L 376.835 275.801 L 380.271 276.215 C 382.689 276.442 385.124 276.528 387.559 276.479 C 392.822 276.438 398.056 275.675 403.117 274.215 C 408.157 272.772 412.971 270.638 417.429 267.87 C 424.657 263.369 430.881 257.413 435.705 250.386 C 437.595 247.699 439.29 244.869 440.763 241.93 C 442.2 239.208 443.332 236.603 444.541 233.923 C 448.681 223.459 450.869 212.323 451 201.071 C 450.966 195.662 450.475 190.269 449.525 184.946 Z" style="fill: rgb(209, 29, 39);"/>
</svg>